<svg xmlns="http://www.w3.org/2000/svg" viewBox="0 0 360 360"><defs><style>.cls-1{fill:#008bf8;}.cls-2{fill:#fff;}</style></defs><g id="Layer_2" data-name="Layer 2"><g id="Layer_1-2" data-name="Layer 1"><rect class="cls-1" width="360" height="360"/><polygon class="cls-2" points="312.5 89.36 303.74 112.89 254.31 245.75 252.46 250.72 245.55 269.29 219.39 269.29 205.61 245.75 202.13 239.81 187.28 214.44 162.41 171.93 147.56 146.55 129.16 115.12 122.14 133.98 80.56 245.75 110.64 245.75 140.53 165.41 155.39 190.78 134.94 245.75 126.18 269.29 47.5 269.29 56.26 245.75 105.69 112.89 107.3 108.6 114.31 89.75 114.45 89.36 139.96 89.36 153.73 112.89 157.61 119.52 172.47 144.9 197.34 187.41 212.19 212.78 230.59 244.2 237.6 225.35 279.44 112.89 249.37 112.89 219.21 193.92 204.36 168.55 225.07 112.89 233.82 89.36 312.5 89.36"/></g></g></svg>