<svg xmlns="http://www.w3.org/2000/svg" xmlns:xlink="http://www.w3.org/1999/xlink" viewBox="0 0 360 360"><defs><style>.cls-1{fill:none;}.cls-2{fill:url(#linear-gradient);}</style><linearGradient id="linear-gradient" x1="219.38" y1="47.42" x2="144.61" y2="301.65" gradientUnits="userSpaceOnUse"><stop offset="0" stop-color="#04e762"/><stop offset="1" stop-color="#008bf8"/></linearGradient></defs><g id="Layer_2" data-name="Layer 2"><g id="Layer_1-2" data-name="Layer 1"><rect class="cls-1" width="360" height="360"/><polygon class="cls-2" points="312.5 91.36 303.74 114.89 254.31 247.75 252.46 252.72 245.55 271.29 219.39 271.29 205.61 247.75 202.13 241.81 187.28 216.44 162.41 173.93 147.56 148.55 129.16 117.12 122.14 135.98 80.56 247.75 110.64 247.75 140.53 167.41 155.39 192.78 134.94 247.75 126.18 271.29 47.5 271.29 56.26 247.75 105.69 114.89 107.3 110.6 114.31 91.75 114.45 91.36 139.96 91.36 153.73 114.89 157.61 121.52 172.47 146.9 197.34 189.41 212.19 214.78 230.59 246.2 237.6 227.35 279.44 114.89 249.37 114.89 219.21 195.92 204.36 170.55 225.07 114.89 233.82 91.36 312.5 91.36"/></g></g></svg>