<svg xmlns="http://www.w3.org/2000/svg" viewBox="0 0 360 360"><defs><style>.cls-1{fill:#fbb03b;}</style></defs><g id="Layer_2" data-name="Layer 2"><g id="Layer_1-2" data-name="Layer 1"><rect class="cls-1" width="360" height="360"/><polygon points="312.5 90.36 303.74 113.89 254.31 246.75 252.46 251.72 245.55 270.29 219.39 270.29 205.61 246.75 202.13 240.81 187.28 215.44 162.41 172.93 147.56 147.55 129.16 116.12 122.14 134.98 80.56 246.75 110.64 246.75 140.53 166.41 155.39 191.78 134.94 246.75 126.18 270.29 47.5 270.29 56.26 246.75 105.69 113.89 107.3 109.6 114.31 90.75 114.45 90.36 139.96 90.36 153.73 113.89 157.61 120.52 172.47 145.9 197.34 188.41 212.19 213.78 230.59 245.2 237.6 226.35 279.44 113.89 249.37 113.89 219.21 194.92 204.36 169.55 225.07 113.89 233.82 90.36 312.5 90.36"/></g></g></svg>