<svg xmlns="http://www.w3.org/2000/svg" xmlns:xlink="http://www.w3.org/1999/xlink" viewBox="0 0 265 179.93"><defs><style>.cls-1{fill:url(#linear-gradient);}</style><linearGradient id="linear-gradient" x1="171.88" y1="-43.93" x2="97.11" y2="210.3" gradientUnits="userSpaceOnUse"><stop offset="0" stop-color="#04e762"/><stop offset="1" stop-color="#008bf8"/></linearGradient></defs><g id="Layer_2" data-name="Layer 2"><g id="Layer_1-2" data-name="Layer 1"><polygon class="cls-1" points="265 0 256.24 23.54 206.81 156.4 204.96 161.37 198.05 179.93 171.89 179.93 158.11 156.4 154.63 150.45 139.78 125.08 114.91 82.57 100.06 57.19 81.66 25.77 74.64 44.63 33.06 156.4 63.14 156.4 93.03 76.05 107.89 101.42 87.44 156.4 78.68 179.93 0 179.93 8.76 156.4 58.19 23.54 59.8 19.25 66.81 0.4 66.95 0 92.46 0 106.23 23.54 110.11 30.16 124.97 55.54 149.84 98.05 164.69 123.42 183.09 154.85 190.1 136 231.94 23.54 201.87 23.54 171.71 104.56 156.86 79.19 177.57 23.54 186.32 0 265 0"/></g></g></svg>