<svg xmlns="http://www.w3.org/2000/svg" viewBox="0 0 669.98 129"><g id="Layer_2" data-name="Layer 2"><g id="Layer_1-2" data-name="Layer 1"><polygon points="189.99 0 183.71 16.87 148.27 112.13 146.94 115.69 141.99 129 123.24 129 113.36 112.13 110.86 107.86 100.22 89.67 82.38 59.2 71.73 41 58.55 18.47 53.52 31.99 23.7 112.13 45.27 112.13 66.7 54.52 77.35 72.71 62.69 112.13 56.41 129 0 129 6.28 112.13 41.72 16.87 42.87 13.8 47.9 0.28 48 0 66.28 0 76.16 16.87 78.94 21.63 89.59 39.82 107.43 70.3 118.08 88.49 131.26 111.02 136.29 97.5 166.29 16.87 144.72 16.87 123.11 74.97 112.46 56.78 127.31 16.87 133.58 0 189.99 0"/><path d="M268.73,53.38H256.42L235.83,22.2V53.38H223.51V2.84h12.32l20.59,31.32V2.84h12.31Z"/><path d="M289.75,2.84V33.08q0,4.53,2.24,7c1.48,1.63,3.67,2.45,6.55,2.45a8.65,8.65,0,0,0,6.62-2.45q2.31-2.45,2.31-7V2.84h12.31V33a21.44,21.44,0,0,1-2.88,11.45,18.49,18.49,0,0,1-7.74,7.06,24.39,24.39,0,0,1-10.84,2.37,23.73,23.73,0,0,1-10.69-2.34,17.39,17.39,0,0,1-7.45-7A22.49,22.49,0,0,1,277.44,33V2.84Z"/><path d="M336.77,52.08a16.1,16.1,0,0,1-7-5.32,14.54,14.54,0,0,1-2.77-8.5h13.1A6.31,6.31,0,0,0,342,42.54,6.2,6.2,0,0,0,346.34,44a6.78,6.78,0,0,0,4.33-1.26,4.22,4.22,0,0,0,1.58-3.49,4.15,4.15,0,0,0-1.26-3.1,10.06,10.06,0,0,0-3.1-2,48.25,48.25,0,0,0-5.22-1.8,56.73,56.73,0,0,1-8-3,14.81,14.81,0,0,1-5.33-4.46,12.51,12.51,0,0,1-2.23-7.71,13.25,13.25,0,0,1,5.11-11q5.11-4,13.32-4t13.47,4a14.34,14.34,0,0,1,5.47,11.13H351.17a5.25,5.25,0,0,0-1.8-3.86,6.38,6.38,0,0,0-4.25-1.4,5.3,5.3,0,0,0-3.6,1.19,4.29,4.29,0,0,0-1.37,3.42,4.23,4.23,0,0,0,2.31,3.81,37.09,37.09,0,0,0,7.2,3,67.55,67.55,0,0,1,7.95,3.16,15.24,15.24,0,0,1,5.3,4.4,11.79,11.79,0,0,1,2.23,7.41,14.59,14.59,0,0,1-2.2,7.85,15.45,15.45,0,0,1-6.37,5.62,21.82,21.82,0,0,1-9.86,2.08A26,26,0,0,1,336.77,52.08Z"/><path d="M404.16,44.45H385.3l-3,8.93H369.38L387.67,2.84h14.26l18.29,50.54h-13ZM401,35l-6.26-18.51L388.54,35Z"/><path d="M471,53.38H458.66L438.07,22.2V53.38H425.76V2.84h12.31l20.59,31.32V2.84H471Z"/><path d="M516.26,2.84V12.7H502.87V53.38H490.56V12.7H477.17V2.84Z"/><path d="M553.92,44.45H535.06l-3,8.93H519.14L537.43,2.84h14.26L570,53.38h-13ZM550.75,35l-6.26-18.51L538.3,35Z"/><path d="M601.3,53.38,590.78,34.3h-2.95V53.38H575.52V2.84h20.66a22.77,22.77,0,0,1,10.19,2.08,14.38,14.38,0,0,1,6.3,5.73,16,16,0,0,1,2.09,8.1,15.08,15.08,0,0,1-2.84,9,15.32,15.32,0,0,1-8.39,5.61l11.66,20ZM587.83,25.59h7.63a7,7,0,0,0,5.08-1.66,6.23,6.23,0,0,0,1.69-4.68,6,6,0,0,0-1.69-4.53,7,7,0,0,0-5.08-1.66h-7.63Z"/><path d="M653.93,44.45H635.06l-3,8.93H619.15L637.44,2.84H651.7L670,53.38H657ZM650.76,35,644.5,16.44,638.3,35Z"/><path d="M235.61,75.84v30.24q0,4.53,2.23,7t6.55,2.45a8.69,8.69,0,0,0,6.63-2.45q2.29-2.44,2.3-7V75.84h12.31V106a21.44,21.44,0,0,1-2.88,11.45,18.49,18.49,0,0,1-7.74,7.06,24.38,24.38,0,0,1-10.83,2.37,23.7,23.7,0,0,1-10.69-2.34,17.41,17.41,0,0,1-7.46-7.05A22.59,22.59,0,0,1,223.3,106V75.84Z"/><path d="M286.58,75.84v50.54H274.27V75.84Z"/><path d="M340.08,126.38l-17-22.32v22.32H310.78V75.84h12.31V98l16.85-22.17h14.47L334.82,100.6l20.31,25.78Z"/><path d="M373.27,75.84v50.54H361V75.84Z"/><path d="M418.56,75.84V85.7H405.17v40.68H392.86V85.7h-13.4V75.84Z"/></g></g></svg>