<svg xmlns="http://www.w3.org/2000/svg" viewBox="0 0 2034.55 360.51"><defs><style>.cls-1{fill:#eb572f;}.cls-2{fill:#f9c61d;}.cls-2,.cls-3,.cls-4{fill-rule:evenodd;}.cls-3{fill:#ef8a23;}.cls-4,.cls-5{fill:#1e1b1e;}</style></defs><g id="Layer_2" data-name="Layer 2"><g id="Layer_1-2" data-name="Layer 1"><circle class="cls-1" cx="153.08" cy="199.39" r="70.19"/><path class="cls-2" d="M57.4,199.39a95.68,95.68,0,0,1,163.33-67.65c.86.85,1.7,1.73,2.51,2.6V65.45c0-.71,0-1.43,0-2.13A153.11,153.11,0,0,0,81.13,334.55a72.7,72.7,0,0,1,16.1-57.46,96.5,96.5,0,0,1-11.8-10A95,95,0,0,1,57.4,199.39Z"/><path class="cls-3" d="M248.76,65.45V199.39a95.79,95.79,0,0,1-128.17,90,47.3,47.3,0,0,0-8.72,57.43A153.08,153.08,0,0,0,306.16,199.39V8A57.4,57.4,0,0,0,248.76,65.45Z"/><path class="cls-4" d="M457.56,134.4q3.75,0,7.36-.3a75.81,75.81,0,0,0,20.51-4.46,66.82,66.82,0,0,0,22.27-13.51,61.77,61.77,0,0,0,14.82-20.87,66.74,66.74,0,0,0,5.31-27,66.18,66.18,0,0,0-5.31-26.84A61.68,61.68,0,0,0,507.7,20.51,66.76,66.76,0,0,0,485.33,7a77.3,77.3,0,0,0-20.41-4.44q-3.78-.31-7.74-.31H402.75V134.4h54.81ZM436.12,30.94H457a50.12,50.12,0,0,1,7.92.6,37.39,37.39,0,0,1,11.47,3.69,30.48,30.48,0,0,1,12.77,12.58q4.56,8.3,4.56,20.23,0,12.12-4.47,20.59a29.39,29.39,0,0,1-12.77,12.77,37.77,37.77,0,0,1-11.56,3.7,50.33,50.33,0,0,1-7.92.59H436.12Z"/><path class="cls-4" d="M615.84,2.24H600.16L548.9,134.4H583l8.14-23.12H640.3l8,23.12h34.86L632.41,2.24Zm0,82.58H600.48l15.36-43.59.18-.53L631.2,84.82Z"/><path class="cls-4" d="M764.1,106.34q-4.58,2.89-13,2.9a39.82,39.82,0,0,1-17.71-3.83,51.62,51.62,0,0,1-14.73-11.09l-21.06,21.25a63.33,63.33,0,0,0,22.27,15.84q12.21,5,28.8,5,25,0,38.87-10.81t13.89-30.57q0-10.08-3.36-17.16a34.53,34.53,0,0,0-8.86-11.74,52,52,0,0,0-12-7.64,138.56,138.56,0,0,0-13.14-5.22q-6.61-2.23-12.12-4.38A31.84,31.84,0,0,1,743.13,44a9,9,0,0,1-3.35-7.27,7.65,7.65,0,0,1,3.91-6.89q3.91-2.43,10.81-2.43a30.31,30.31,0,0,1,13.42,3A45.17,45.17,0,0,1,780,39.33l21.25-21.06A53.14,53.14,0,0,0,781.34,4.85,70.62,70.62,0,0,0,754.87,0q-14.36,0-25.16,4.85a39,39,0,0,0-16.87,13.79q-6.06,9-6.06,21.62,0,9.89,3.36,16.59A33.41,33.41,0,0,0,719,68a57.94,57.94,0,0,0,12.12,7.55,117,117,0,0,0,13.23,5.22c4.41,1.43,8.45,2.91,12.12,4.47a30.66,30.66,0,0,1,8.85,5.41,10,10,0,0,1,3.36,7.73A8.92,8.92,0,0,1,764.1,106.34Z"/><path class="cls-4" d="M910.58,111.28l8,23.12h34.85L902.69,2.24H870.45L819.19,134.4H853.3l8.14-23.12h49.14ZM886.12,41.23l.19-.53,15.17,44.12H870.77Z"/><polygon class="cls-4" points="1143.16 2.24 1102.52 2.24 1057.78 61.25 1057.78 2.24 1024.41 2.24 1024.41 134.4 1057.78 134.4 1057.78 69.8 1104.57 134.4 1145.21 134.4 1092.99 65.23 1143.16 2.24"/><path class="cls-4" d="M1248.85,76a39.16,39.16,0,0,0,16.31-13.79,36.46,36.46,0,0,0,5.87-20.6,36.42,36.42,0,0,0-5.78-20.51,39.66,39.66,0,0,0-15.94-13.79q-10.15-5-23.58-5h-56.29V134.4h33.36V80.9h2l15.65,23.1,20.6,30.4h38.59l-40.49-55.1A48.5,48.5,0,0,0,1248.85,76ZM1233.66,53q-4.38,4-12.59,4H1202.8V27h18.27c5.47,0,9.67,1.41,12.59,4.2A14.46,14.46,0,0,1,1238,42.13C1238,46.73,1236.57,50.36,1233.66,53Z"/><polygon class="cls-4" points="1337.76 80.72 1395.74 80.72 1395.74 53.31 1337.76 53.31 1337.76 30.39 1401.33 30.39 1401.33 2.24 1304.4 2.24 1304.4 134.4 1402.45 134.4 1402.45 106.25 1337.76 106.25 1337.76 80.72"/><path class="cls-4" d="M1492.51,2.24h-15.69L1425.56,134.4h34.12l8.14-23.12H1517l8,23.12h34.86L1509.07,2.24Zm0,82.58h-15.36l15.36-43.6.18-.52,15.17,44.12Z"/><polygon class="cls-4" points="1563.88 30.94 1604.33 30.94 1604.33 134.4 1637.7 134.4 1637.7 30.94 1678.15 30.94 1678.15 2.24 1563.88 2.24 1563.88 30.94"/><rect class="cls-5" x="1707.22" y="2.23" width="33.37" height="132.16"/><polygon class="cls-4" points="1833.66 87.31 1803.97 2.24 1768.36 2.24 1818.13 134.4 1848.33 134.4 1898.66 2.24 1863.8 2.24 1833.66 87.31"/><path class="cls-4" d="M1983.85,2.24H1951.6L1900.34,134.4h34.11l8.15-23.12h49.14l8,23.12h34.86Zm-16.57,82.58h-15.36l15.36-43.61.18-.51,15.18,44.12Z"/><path class="cls-4" d="M463.15,308.87l35.59.89a33.24,33.24,0,0,1-1.94,4.71,27.59,27.59,0,0,1-11.56,11.93q-7.55,4.11-18.36,4.1a37.18,37.18,0,0,1-19.11-4.84,34.49,34.49,0,0,1-13-13.61A42.07,42.07,0,0,1,430,291.72a39.11,39.11,0,0,1,5-20.13,35.64,35.64,0,0,1,13.52-13.32,38.74,38.74,0,0,1,19.29-4.76,41.16,41.16,0,0,1,18.64,4,46.47,46.47,0,0,1,14.73,12l22.37-22.38a60.69,60.69,0,0,0-23.31-17.24,79.59,79.59,0,0,0-32.06-6.25,76.65,76.65,0,0,0-28.05,5.13,71.5,71.5,0,0,0-23,14.35,65.32,65.32,0,0,0-20.88,48.75,67.67,67.67,0,0,0,5.31,26.94,66.3,66.3,0,0,0,14.92,21.71A68.05,68.05,0,0,0,438.83,355a74,74,0,0,0,27.86,5.13q20.15,0,35.33-8.48a59,59,0,0,0,23.76-24.89q8.58-16.39,8.58-40.08v-5H463.15Z"/><path class="cls-4" d="M643.59,299.65a39,39,0,0,0,16.31-13.8,39.16,39.16,0,0,0,.09-41.1A39.7,39.7,0,0,0,644.06,231q-10.17-5-23.58-5h-56.3V358.09h33.37v-53.5h2l15.65,23.1,20.6,30.4h38.59L633.87,303A48.6,48.6,0,0,0,643.59,299.65ZM628.4,276.72q-4.38,4-12.58,4H597.55v-30h18.27q8.2,0,12.58,4.19a14.42,14.42,0,0,1,4.38,10.9Q632.78,272.71,628.4,276.72Z"/><path class="cls-4" d="M813.59,243.07a67.12,67.12,0,0,0-22.36-14.44,75.34,75.34,0,0,0-28.15-5.13h0a75.3,75.3,0,0,0-28.15,5.13,66.9,66.9,0,0,0-42.5,63.09,68.06,68.06,0,0,0,5.4,27.13,67.26,67.26,0,0,0,15,21.9,69.23,69.23,0,0,0,22.46,14.54,74.14,74.14,0,0,0,27.78,5.22h.37a74.06,74.06,0,0,0,27.87-5.13,66.36,66.36,0,0,0,22.27-14.54,70.08,70.08,0,0,0,14.82-75.95A66.88,66.88,0,0,0,813.59,243.07Zm-18.45,69.16a32.7,32.7,0,0,1-12.68,13.61q-8.19,4.85-19.38,4.85h0A39.91,39.91,0,0,1,748,328a32.39,32.39,0,0,1-11.56-7.82,34.17,34.17,0,0,1-7.36-12.31,48.45,48.45,0,0,1-2.52-16.13A44,44,0,0,1,731,271.41a32.1,32.1,0,0,1,12.67-13.52,38.09,38.09,0,0,1,19.39-4.75h0a38.85,38.85,0,0,1,15.1,2.8,33.26,33.26,0,0,1,11.55,7.92,34.2,34.2,0,0,1,7.37,12.21,46.66,46.66,0,0,1,2.51,15.65A44.54,44.54,0,0,1,795.14,312.23Z"/><path class="cls-4" d="M941.65,307.94a23.32,23.32,0,0,1-3,12.12,20.24,20.24,0,0,1-8,7.73,24.38,24.38,0,0,1-11.75,2.71,25.56,25.56,0,0,1-11.83-2.71,20.33,20.33,0,0,1-8.39-7.82,23.31,23.31,0,0,1-3.08-12.21V225.92H862.43v79.41a56.33,56.33,0,0,0,7.09,28.34,49.94,49.94,0,0,0,19.85,19.48q12.76,7,29.54,7,17,0,29.55-7a50.34,50.34,0,0,0,19.66-19.39,55.9,55.9,0,0,0,7.09-28.24v-79.6H941.65Z"/><path class="cls-4" d="M1091.71,231.05a50.55,50.55,0,0,0-22.93-5.13h-58.34V358.09h33.36V310.74h25a51.43,51.43,0,0,0,22.93-5,39,39,0,0,0,16.22-14.63q6-9.61,6-22.65,0-13.42-6-22.84A40.05,40.05,0,0,0,1091.71,231.05Zm-13.42,47.07a15.39,15.39,0,0,1-6.43,5.87,20,20,0,0,1-8.86,2h-19.2V250.72H1063a20,20,0,0,1,8.86,1.95,15.32,15.32,0,0,1,6.43,6,18.65,18.65,0,0,1,2.42,9.79A18.14,18.14,0,0,1,1078.29,278.12Z"/></g></g></svg>